<svg width="24" height="24" viewBox="0 0 24 24" fill="none" xmlns="http://www.w3.org/2000/svg">
<circle cx="12" cy="12" r="9.25" stroke="white" stroke-width="1.5"/>
<path d="M15.25 12C15.25 14.6904 14.8124 17.0916 14.1321 18.7925C13.7911 19.6451 13.4038 20.2846 13.0121 20.6988C12.6219 21.1114 12.2796 21.25 12 21.25C11.7204 21.25 11.3781 21.1114 10.9879 20.6988C10.5962 20.2846 10.2089 19.6451 9.86793 18.7925C9.18757 17.0916 8.75 14.6904 8.75 12C8.75 9.30957 9.18757 6.90837 9.86793 5.20748C10.2089 4.35495 10.5962 3.71536 10.9879 3.30118C11.3781 2.88858 11.7204 2.75 12 2.75C12.2796 2.75 12.6219 2.88858 13.0121 3.30118C13.4038 3.71536 13.7911 4.35495 14.1321 5.20748C14.8124 6.90837 15.25 9.30957 15.25 12Z" stroke="white" stroke-width="1.5"/>
<path d="M3 12H21" stroke="white" stroke-width="1.5"/>
</svg>
